<?xml version="1.0" encoding="UTF-8" standalone="no"?>
<!-- Created with Inkscape (http://www.inkscape.org/) -->

<svg
   xmlns:dc="http://purl.org/dc/elements/1.1/"
   xmlns:cc="http://creativecommons.org/ns#"
   xmlns:rdf="http://www.w3.org/1999/02/22-rdf-syntax-ns#"
   xmlns:svg="http://www.w3.org/2000/svg"
   xmlns="http://www.w3.org/2000/svg"
   xmlns:sodipodi="http://sodipodi.sourceforge.net/DTD/sodipodi-0.dtd"
   xmlns:inkscape="http://www.inkscape.org/namespaces/inkscape"
   width="120.88174mm"
   height="52.916756mm"
   viewBox="0 0 120.88174 52.916756"
   version="1.1"
   id="svg5769"
   inkscape:version="0.92.1 r15371"
   sodipodi:docname="El_Nuevo_Día_(2019-11-01).svg">
  <defs
     id="defs5763" />
  <sodipodi:namedview
     id="base"
     pagecolor="#ffffff"
     bordercolor="#666666"
     borderopacity="1.0"
     inkscape:pageopacity="0.0"
     inkscape:pageshadow="2"
     inkscape:zoom="0.35"
     inkscape:cx="228.43794"
     inkscape:cy="100.00013"
     inkscape:document-units="mm"
     inkscape:current-layer="layer1"
     showgrid="false"
     fit-margin-top="0"
     fit-margin-left="0"
     fit-margin-right="0"
     fit-margin-bottom="0"
     inkscape:window-width="1920"
     inkscape:window-height="1001"
     inkscape:window-x="-9"
     inkscape:window-y="-9"
     inkscape:window-maximized="1" />
  <metadata
     id="metadata5766">
    <rdf:RDF>
      <cc:Work
         rdf:about="">
        <dc:format>image/svg+xml</dc:format>
        <dc:type
           rdf:resource="http://purl.org/dc/dcmitype/StillImage" />
        <dc:title></dc:title>
      </cc:Work>
    </rdf:RDF>
  </metadata>
  <g
     inkscape:label="Ebene 1"
     inkscape:groupmode="layer"
     id="layer1"
     transform="translate(164.7623,-122.37495)">
    <path
       inkscape:connector-curvature="0"
       id="path1632"
       d="m -148.10916,143.49278 c 0,0.39651 0.38309,0.43099 0.52867,0.43099 h 12.81644 l 1.75266,-4.84807 c -0.9788,0.26625 -14.322,3.87309 -14.50014,3.92289 -0.18389,0.0498 -0.59763,0.0881 -0.59763,0.49419"
       style="fill:#d9333a;fill-opacity:1;fill-rule:evenodd;stroke:none;stroke-width:0.49036151" />
    <path
       inkscape:connector-curvature="0"
       id="path1634"
       d="m -75.522249,136.11246 c 0,0 10.937362,-12.38929 11.188292,-12.66703 0.1245,-0.13983 0.46163,-0.44248 0.16664,-0.84664 -0.29306,-0.40417 -0.771932,-0.14941 -0.94624,-0.09 -0.352446,0.11493 -20.33085,6.52219 -20.33085,6.52219 l -0.08428,0.0307 9.826387,7.25199 z m 0,0"
       style="fill:#d9333a;fill-opacity:1;fill-rule:evenodd;stroke:none;stroke-width:0.49036151" />
    <path
       inkscape:connector-curvature="0"
       id="path1636"
       d="m -96.630779,122.88611 c -1.00562,-0.60146 -1.23548,0.8792 -1.23548,0.8792 l -2.329211,6.55476 20.248477,4.74079 c 0,0 -16.386884,-11.96788 -16.683786,-12.17475"
       style="fill:#d9333a;fill-opacity:1;fill-rule:evenodd;stroke:none;stroke-width:0.49036151" />
    <path
       inkscape:connector-curvature="0"
       id="path1638"
       d="m -74.024348,136.72924 11.096351,2.36945 c 0,0 11.33578,-6.87847 11.7591,-7.14856 0.44822,-0.2854 0.73745,-0.47695 0.54016,-1.02477 -0.15516,-0.43673 -0.57847,-0.39267 -0.90411,-0.36586 -0.32562,0.0268 -17.972891,1.12055 -17.972891,1.12055 z m 0,0"
       style="fill:#d9333a;fill-opacity:1;fill-rule:evenodd;stroke:none;stroke-width:0.49036151" />
    <path
       inkscape:connector-curvature="0"
       id="path1640"
       d="m -129.98302,138.54703 -2.74105,7.75384 h -4.20638 c -6.99148,0 -13.23402,4.38069 -15.61303,10.9546 l -0.24327,0.67616 c -3.05518,8.44342 3.20076,17.35995 12.18242,17.35995 h 21.22921 l 13.04438,-36.74455 z m 0,0"
       style="fill:#211e1e;fill-opacity:1;fill-rule:nonzero;stroke:none;stroke-width:0.49036151" />
    <path
       inkscape:connector-curvature="0"
       id="path1642"
       d="m -106.90347,147.99607 -9.69038,27.29551 h 23.589067 l 9.157882,-25.79378 c 0.260504,-0.73171 -0.283485,-1.50173 -1.059254,-1.50173 z m 0,0"
       style="fill:#211e1e;fill-opacity:1;fill-rule:nonzero;stroke:none;stroke-width:0.49036151" />
    <path
       inkscape:connector-curvature="0"
       id="path1644"
       d="m -72.133773,155.48366 h 0.220282 v 0.002 c 0.46546,0.0192 0.837059,0.40225 0.837059,0.87154 0,0.47695 -0.383095,0.86579 -0.858131,0.87346 l -4.773361,0.069 c -4.409424,0 -8.347641,2.76403 -9.847458,6.91103 l -0.128334,0.35628 c -1.873337,5.18136 1.963357,10.71133 7.470349,10.71133 l 24.94906,0.0134 5.47251,-15.66284 c 2.00741,-5.67745 -2.20279,-11.63075 -8.22313,-11.63075 h -16.829364 c 0,0 -5.461016,-0.15707 -7.550801,7.48568 z m 0,0"
       style="fill:#211e1e;fill-opacity:1;fill-rule:nonzero;stroke:none;stroke-width:0.49036151" />
    <path
       inkscape:connector-curvature="0"
       id="path1646"
       d="m -158.83965,158.78976 h -2.96707 l -0.26242,1.37915 h 2.68166 l -0.30456,1.55536 h -2.67208 l -0.28349,1.50556 h 2.94408 l -0.32563,1.63007 h -4.73314 l 1.49407,-7.70978 h 4.74272 z m 0,0"
       style="fill:#0f0c0c;fill-opacity:1;fill-rule:nonzero;stroke:none;stroke-width:0.49036151" />
    <path
       inkscape:connector-curvature="0"
       id="path1648"
       d="m -154.38234,164.8599 h -4.73314 l 1.49216,-7.70978 h 1.78905 l -1.17802,6.07971 h 2.95558 z m 0,0"
       style="fill:#0f0c0c;fill-opacity:1;fill-rule:nonzero;stroke:none;stroke-width:0.49036151" />
    <path
       inkscape:connector-curvature="0"
       id="path1650"
       d="m -145.60755,164.97483 -0.18963,0.0307 -3.6394,-4.19489 -0.78918,4.04932 h -1.78714 l 1.51323,-7.81514 0.25284,-0.0421 3.57619,4.17572 0.78918,-4.02824 h 1.78713 z m 0,0"
       style="fill:#ffffff;fill-opacity:1;fill-rule:nonzero;stroke:none;stroke-width:0.49036151" />
    <path
       inkscape:connector-curvature="0"
       id="path1652"
       d="m -137.73878,162.01925 c -0.39076,1.98827 -1.58793,2.96516 -3.44977,2.96516 -1.77756,0 -2.89237,-0.85047 -2.89237,-2.49203 0,-0.25285 0.0306,-0.63019 0.0939,-0.94624 l 0.85239,-4.39602 h 1.78714 l -0.86197,4.41708 c -0.0211,0.136 -0.0536,0.45205 -0.0536,0.64169 0,0.73554 0.40034,1.14545 1.17802,1.14545 0.84281,0 1.38872,-0.51526 1.61091,-1.63007 l 0.89262,-4.57415 h 1.78905 z m 0,0"
       style="fill:#ffffff;fill-opacity:1;fill-rule:nonzero;stroke:none;stroke-width:0.49036151" />
    <path
       inkscape:connector-curvature="0"
       id="path1654"
       d="m -131.40239,158.78976 h -2.96515 l -0.26434,1.37915 h 2.68358 l -0.30648,1.55536 h -2.67017 l -0.2854,1.50556 h 2.946 l -0.32564,1.63007 h -4.73313 l 1.49215,-7.70978 h 4.74464 z m 0,0"
       style="fill:#ffffff;fill-opacity:1;fill-rule:nonzero;stroke:none;stroke-width:0.49036151" />
    <path
       inkscape:connector-curvature="0"
       id="path1656"
       d="m -128.39318,164.92311 h -0.2107 l -2.09362,-7.77299 h 2.00934 l 0.9156,4.21788 2.49203,-4.21788 h 2.00933 z m 0,0"
       style="fill:#ffffff;fill-opacity:1;fill-rule:nonzero;stroke:none;stroke-width:0.49036151" />
    <path
       inkscape:connector-curvature="0"
       id="path1658"
       d="m -120.32328,158.60013 c -1.35807,0 -2.34646,1.28337 -2.34646,2.81958 0,1.28337 0.64168,1.98826 1.72584,1.98826 1.35616,0 2.34455,-1.28336 2.34455,-2.81958 0,-1.28336 -0.64169,-1.98826 -1.72393,-1.98826 m -0.76811,6.38428 c -2.11468,0 -3.47084,-1.32359 -3.47084,-3.40763 0,-2.46138 1.79863,-4.55308 4.38644,-4.55308 2.11277,0 3.46892,1.32551 3.46892,3.40762 0,2.46139 -1.79671,4.55309 -4.38452,4.55309"
       style="fill:#ffffff;fill-opacity:1;fill-rule:nonzero;stroke:none;stroke-width:0.49036151" />
    <path
       inkscape:connector-curvature="0"
       id="path1660"
       d="m -44.535607,144.82212 c -0.64935,-0.21836 -79.358123,-18.25639 -79.630123,-18.33875 -0.1743,-0.0517 -0.72788,-0.27966 -1.06308,0.19538 -0.33713,0.47312 0.023,0.8658 0.24135,1.13205 0.34286,0.42523 4.65842,3.52447 6.94167,5.1507 -10.80327,-1.58026 -21.98773,-3.19117 -22.12948,-3.21225 -0.27774,-0.0402 -0.81024,-0.19729 -1.09181,0.2835 -0.37544,0.63402 0.27965,1.04776 0.27965,1.04776 l 8.09863,7.37074 c 0,0 0.24135,-0.64743 0.408,-1.09182 0.0804,-0.20878 0.1494,-0.43289 0.4214,-0.65126 0.272,-0.22027 0.56506,-0.18772 0.77002,-0.18772 0.39076,0.002 27.37597,-0.0249 27.37597,-0.0249 0,0 0.4463,-0.0288 0.78917,0.37161 0.20113,0.23177 0.22603,0.51526 0.21262,0.71255 l -2.41158,6.00118 18.905729,-6.6103 c 0.578475,-0.20304 1.210583,0.10344 1.411708,0.68 l 2.718062,7.80364 0.293066,0.84281 c 0,0 37.031868,-0.002 37.225338,-0.002 0.19538,0 0.60337,0.006 0.80258,-0.39267 0.11684,-0.23369 0.24518,-0.80833 -0.56889,-1.08033"
       style="fill:#d9333a;fill-opacity:1;fill-rule:evenodd;stroke:none;stroke-width:0.49036151" />
    <path
       inkscape:connector-curvature="0"
       id="path1662"
       d="m -86.66265,139.47029 2.390514,6.86506 h -22.027954 z m 0,0"
       style="fill:#3a97d9;fill-opacity:1;fill-rule:nonzero;stroke:none;stroke-width:0.49036151" />
  </g>
</svg>
