<svg width="526" height="189" viewBox="0 0 526 189" fill="none" xmlns="http://www.w3.org/2000/svg">
<rect width="526" height="189" fill="#16214D"/>
<path fill-rule="evenodd" clip-rule="evenodd" d="M24 92.9329V153H113.975L111.622 147.75C110.328 144.863 106.666 136.988 103.486 130.25L97.703 118H63V39.3749L45.25 36.6299C35.487 35.1199 26.712 33.6559 25.75 33.3749C24.097 32.8939 24 36.1979 24 92.9329ZM114 36.7999V40.5989L122.25 41.8109C128.92 42.803 135.587 43.8194 142.25 44.8599L154 46.6959V32.9999H114V36.7999ZM180 41.4409C180 46.0839 180.374 50.1129 180.83 50.3949C181.287 50.6769 189.049 52.0619 198.08 53.4719C207.111 54.8809 215.738 56.2879 217.25 56.5969L220 57.1589V32.9999H180V41.4409ZM240 46.4209V59.8409L242.75 60.3969C245.323 60.9179 251.07 61.8509 283.233 66.9719C290.237 68.0879 296.817 68.9999 297.856 68.9999C299.515 68.9999 298.887 66.8169 292.672 50.9999L285.6 32.9999H240V46.4209ZM332 33.4959C332 33.9879 375.518 55.9999 376.491 55.9999C376.771 55.9999 377 50.8249 377 44.4999V32.9999H354.5C342.125 32.9999 332 33.2229 332 33.4959ZM430.183 34.7499C429.694 35.7119 428.447 38.9119 427.41 41.8599L425.526 47.2189L434.263 64.2189C439.068 73.5679 443 80.5419 443 79.7159C443 78.8899 441.428 68.3789 439.506 56.3569C437.584 44.3359 436.009 34.1629 436.006 33.7499C435.994 32.2139 431.037 33.0659 430.183 34.7499ZM440.029 33.7499C440.044 34.1629 441.764 45.0749 443.849 57.9999L447.641 81.4999L451.32 58.8319C453.344 46.3649 455 35.4529 455 34.5819C455 33.2799 453.674 32.9999 447.5 32.9999C443.375 32.9999 440.013 33.3369 440.029 33.7499ZM456.152 54.7499C454.311 66.7129 452.589 77.6249 452.326 78.9999C452.062 80.3749 455.975 73.6589 461.02 64.0749L470.193 46.6499L467.87 39.8249C465.685 33.4089 465.365 32.9999 462.522 32.9999H459.498L456.152 54.7499ZM324.203 52.3259C316.171 72.8959 316.437 71.8269 319.193 72.4789C320.462 72.7789 334.002 74.9689 349.282 77.3469L377.064 81.6699L376.782 71.2899L376.5 60.9099L353.314 49.0309L330.128 37.1519L324.203 52.3259ZM114.205 80.6609C114.533 116.342 114.616 117.68 116.84 123.239C119.725 130.451 124.582 137.553 129.051 141.096L132.5 143.83L173.41 136.966C199.214 132.636 214.633 129.621 215.17 128.801C219.173 122.679 220.042 114.879 219.769 87.5109L219.5 60.5219L202.5 57.8359C193.15 56.3589 184.288 55.1169 182.807 55.0749L180.115 54.9999L180.03 83.6159C179.98 100.762 179.542 112.988 178.938 114.116C175.169 121.158 159.128 121.016 155.453 113.909C154.276 111.633 154 105.331 154 80.7309V50.3619L135.75 47.5899C125.713 46.0649 116.682 44.5939 115.683 44.3199C113.947 43.8449 113.881 45.4559 114.205 80.6609ZM463.658 67.7639L455.816 83.4999L466.006 73.3969L476.195 63.2929L474.415 57.6469C473.436 54.5409 472.379 52.0059 472.067 52.0139C471.755 52.0219 467.971 59.1089 463.658 67.7639ZM421.304 58.3709L419.294 63.8279L429.769 74.1639L440.244 84.4999L432.477 69.4999C422.916 51.0339 423.714 51.8289 421.304 58.3709ZM240 95.0669C240 124.185 240.11 126.102 241.75 125.619C242.713 125.336 272.3 120.571 307.5 115.031C342.7 109.491 372.754 104.703 374.286 104.392L377.073 103.825L376.786 94.6989L376.5 85.5729L346.5 80.7969C330 78.1699 316.05 76.1859 315.5 76.3869C314.95 76.5889 313.375 79.7769 312 83.4719C310.625 87.1669 309.223 90.3619 308.884 90.5709C308.545 90.7809 306.79 87.1299 304.984 82.4579C302.539 76.1339 301.163 73.8399 299.6 73.4819C297.591 73.0209 241.282 63.9999 240.417 63.9999C240.188 63.9999 240 77.9799 240 95.0669ZM416.551 71.5319C415.698 73.5739 415 75.4109 415 75.6139C415 75.8169 419.95 78.4659 426 81.4999C432.05 84.5339 437 86.8749 437 86.7009C437 86.5269 432.748 82.2079 427.551 77.1019L418.102 67.8199L416.551 71.5319ZM467.98 77.6009L458.5 87.2009L469.5 81.4329C475.55 78.2599 480.639 75.5639 480.809 75.4399C481.172 75.1759 478.252 67.9999 477.781 67.9999C477.605 67.9999 473.194 72.3199 467.98 77.6009ZM412.093 83.1619C411.487 84.9009 411.154 86.4869 411.353 86.6859C411.835 87.1679 434 90.7369 434 90.3329C434 89.9879 414.296 79.9999 413.616 79.9999C413.385 79.9999 412.7 81.4229 412.093 83.1619ZM471.115 85.0019C465.953 87.7159 461.567 90.0999 461.367 90.2999C461.167 90.4999 466.266 89.8259 472.697 88.8029C486.324 86.6359 485.298 87.1519 483.907 83.1619C482.493 79.1069 482.264 79.1399 471.115 85.0019ZM407.978 94.5669C406.383 99.3999 406.518 99.4419 417.691 97.5879C434.722 94.7609 434.615 94.8549 423 92.9079C408.756 90.5209 409.334 90.4569 407.978 94.5669ZM472.5 92.9229C461.21 94.8079 461.523 95.1039 477.341 97.5059C489.66 99.3759 489.614 99.3889 488.022 94.5669C486.662 90.4449 487.077 90.4889 472.5 92.9229ZM418.262 101.443C410.981 102.653 404.874 103.836 404.691 104.072C404.045 104.905 399.961 116.294 400.229 116.517C400.378 116.642 408.15 112.76 417.5 107.889C426.85 103.019 433.825 99.0819 433 99.1389C432.175 99.1959 425.543 100.233 418.262 101.443ZM478 107.948C487.625 112.81 495.628 116.671 495.785 116.526C496.05 116.282 492.06 104.895 491.458 104.177C491.204 103.873 462.074 98.9869 461 99.0679C460.725 99.0889 468.375 103.085 478 107.948ZM416.639 112.774L397.777 122.509L392.441 136.974C389.506 144.929 387.214 151.548 387.348 151.681C387.482 151.815 398.592 140.916 412.038 127.462C425.484 114.008 436.263 103.009 435.992 103.019C435.722 103.03 427.012 107.419 416.639 112.774ZM483.455 127.879C497.18 141.654 508.582 152.751 508.793 152.54C509.004 152.329 506.774 145.552 503.838 137.479L498.5 122.801L478.5 112.818L458.5 102.834L483.455 127.879ZM416 129.5L392.516 153H415.954L427.77 129.5C434.27 116.575 439.564 106 439.536 106C439.507 106 428.916 116.575 416 129.5ZM456.167 106.938C456.35 107.453 461.675 118.019 468 130.416L479.5 152.957L491.492 152.979L503.484 153L480 129.5C456.912 106.396 455.499 105.058 456.167 106.938ZM329.5 115.36C301.504 119.817 284.5 122.943 284.5 123.633C284.5 124.244 286.969 131.101 289.986 138.871L295.471 153H321.657L328.967 134.75C332.987 124.713 336.664 116.073 337.138 115.55C337.624 115.014 338 121.885 338 131.3C338 140.485 338.278 148 338.617 148C338.957 148 347.725 143.613 358.101 138.25L376.969 128.5L376.984 118.25C376.996 110.656 376.676 108.026 375.75 108.099C375.063 108.153 354.25 111.421 329.5 115.36ZM431.323 131.121L420.146 153.108L424.23 152.804L428.314 152.5L431.774 142.804C434.555 135.011 435.652 133.049 437.367 132.804C439.243 132.537 439.708 131.296 441.224 122.5C442.172 117 442.847 111.743 442.724 110.817C442.601 109.891 437.47 119.028 431.323 131.121ZM446.141 117.237C445.5 121.782 444.697 127.188 444.357 129.25L443.738 133H447.369C450.469 133 450.999 132.671 450.996 130.75C450.991 128.192 448.089 109.755 447.616 109.283C447.446 109.113 446.782 112.692 446.141 117.237ZM452.342 111C452.621 112.375 453.36 117.1 453.985 121.5C455.537 132.423 455.764 133 458.502 133C460.616 133 461.221 134.072 464.148 143L467.425 153H475.011L466.108 135.25C455.789 114.676 451.587 107.274 452.342 111ZM259.5 126.367L240.5 129.5L240.218 141.25L239.937 153H279V138C279 129.75 278.887 123.053 278.75 123.117C278.613 123.181 269.95 124.643 259.5 126.367ZM357.75 142.558C347.438 147.757 339 152.233 339 152.505C339 152.777 347.52 153 357.934 153H376.867L377.184 142.998C377.358 137.497 377.275 133.021 377 133.051C376.725 133.082 368.063 137.36 357.75 142.558ZM174.25 140.434C154.313 143.726 138 146.712 138 147.071C138 147.429 140.436 148.654 143.412 149.794C161.711 156.796 184.516 154.937 199.679 145.206C204.407 142.171 211.782 135.312 210.932 134.74C210.694 134.58 194.188 137.142 174.25 140.434Z" fill="#658D1B"/>
</svg>
